Coordinates
version=1
nRows=11
nColumns=36
inDegrees=yes

Units are S.I. units (second, meters, Newtons, ...)
If the header above contains a line with 'inDegrees', this indicates whether rotational values are in degrees (yes) or radians (no).

endheader
time	pelvis_tilt	pelvis_list	pelvis_rotation	pelvis_tx	pelvis_ty	pelvis_tz	hip_flexion_r	hip_adduction_r	hip_rotation_r	knee_angle_r	knee_angle_r_beta	ankle_angle_r	subtalar_angle_r	mtp_angle_r	hip_flexion_l	hip_adduction_l	hip_rotation_l	knee_angle_l	knee_angle_l_beta	ankle_angle_l	subtalar_angle_l	mtp_angle_l	lumbar_extension	lumbar_bending	lumbar_rotation	arm_flex_r	arm_add_r	arm_rot_r	elbow_flex_r	pro_sup_r	arm_flex_l	arm_add_l	arm_rot_l	elbow_flex_l	pro_sup_l
      2.00000000	    -23.23264094	     -0.08355839	      3.40223128	     -0.31251627	      0.81435228	     -0.57402266	     79.96537259	     -9.14724946	      5.31922671	     89.35431618	      1.55952702	     28.39174137	    -17.11690656	     -7.49988087	     80.51102219	    -11.98438948	      0.71185395	     86.68654264	      1.51296559	     30.58570631	     -8.27206931	     -7.49988087	    -24.66431787	      3.09525246	      6.21084181	    101.79215112	    -19.30047937	     30.41002796	    107.83526629	     80.18707614	     96.23544643	    -12.29993476	     25.85570601	    107.83349706	     85.37975612
      2.01000000	    -22.59217245	      0.21060417	      3.31007259	     -0.30597573	      0.82767505	     -0.57606547	     77.73812546	     -9.00624584	      5.41844086	     87.38801678	      1.52520862	     27.86237770	    -17.33544546	     -7.49991727	     78.04214873	    -11.64897870	      0.34840116	     84.62836778	      1.47704366	     29.92706476	     -8.99099621	     -7.49991727	    -23.90595251	      2.92357806	      5.79440690	    103.76195269	    -18.86080311	     31.11105518	    106.85706980	     82.45262262	     98.02998808	    -12.88937261	     24.84594138	    107.56235519	     89.06888739
      2.02000000	    -22.02656028	      0.36640892	      3.19005061	     -0.29907228	      0.84056586	     -0.57770942	     75.44144763	     -8.89874666	      5.35830253	     85.29500645	      1.48867870	     27.40902592	    -17.28371534	     -7.49993682	     75.58360454	    -11.34585283	      0.13325600	     82.49737068	      1.43985074	     29.22062490	     -9.80399917	     -7.49993682	    -22.93041395	      2.91863699	      5.44900465	    105.76914061	    -18.56134673	     32.12275267	    106.26890799	     81.34838026	    100.08053864	    -13.48878353	     24.71221378	    107.50603756	     87.38700774
      2.03000000	    -21.36251844	      0.44365224	      3.06990878	     -0.29301016	      0.85329173	     -0.57719234	     72.97036949	     -8.79566362	      5.20440464	     83.13604027	      1.45099763	     26.91630566	    -17.28319718	     -7.49994641	     73.04005785	    -11.08581788	      0.00910712	     80.33764701	      1.40215645	     28.40159966	    -10.69692493	     -7.49994641	    -22.06942656	      2.91686659	      5.09746778	    108.00884526	    -18.51243673	     33.03034854	    105.51974302	     81.22847928	    102.47168947	    -14.14789805	     24.81808788	    106.99904410	     86.95796703
      2.04000000	    -21.02719636	      0.52211836	      2.91921412	     -0.28588889	      0.86595364	     -0.57568102	     70.83305822	     -8.70893590	      5.05698468	     80.96282933	      1.41306794	     26.49305683	    -17.16396645	     -7.49995434	     70.80492793	    -10.83896185	     -0.14216810	     78.13440116	      1.36370256	     27.55651652	    -11.49518303	     -7.49995434	    -20.64234011	      2.89174594	      4.79747147	    109.82565424	    -18.65816457	     33.92354839	    104.93657745	     81.02391210	    104.49649090	    -14.97670059	     25.13240672	    106.50426917	     86.25663551
      2.05000000	    -19.88601935	      0.52893045	      2.70862341	     -0.27820910	      0.88109942	     -0.57485940	     67.72125173	     -8.53144084	      4.82143879	     78.61894883	      1.37215951	     26.15966326	    -16.91450225	     -7.49996212	     67.65952565	    -10.72449981	     -0.24773965	     75.81531639	      1.32322689	     26.76930779	    -12.18458039	     -7.49996212	    -20.34378174	      3.00753404	      4.42145587	    112.16284368	    -18.13380548	     34.21249939	    103.35601182	     81.99491986	    107.07987779	    -15.59514147	     24.90446198	    105.11258320	     87.95941859
      2.06000000	    -19.23722006	      0.60079607	      2.52705767	     -0.27088319	      0.89649126	     -0.57566279	     64.97868133	     -8.48796620	      4.67809417	     76.03150279	      1.32700006	     25.56205496	    -16.62551729	     -7.49997251	     64.87199444	    -10.54177195	     -0.47727365	     73.26309198	      1.27868218	     25.77674400	    -12.99339546	     -7.49997251	    -19.35666923	      2.95541884	      4.13186632	    114.02374940	    -18.13948363	     34.53650639	    102.06125350	     84.27435981	    109.36237235	    -15.88885098	     24.85680552	    103.27559114	     92.45188115
      2.07000000	    -18.73439364	      0.63790683	      2.40034831	     -0.26374199	      0.91262260	     -0.57723496	     62.19944023	     -8.52785123	      4.47582527	     73.15570014	      1.27680783	     24.80231953	    -16.30699638	     -7.49997744	     62.12615890	    -10.31149314	     -0.71271230	     70.48488492	      1.23019331	     24.73646074	    -13.66738467	     -7.49997744	    -18.23364746	      2.98581877	      3.80875205	    115.96531736	    -18.41685419	     35.48672001	    100.92312609	     82.90904444	    111.66293919	    -16.51248974	     25.72145849	    101.54338264	     89.70562728
      2.08000000	    -17.78270188	      0.56549217	      2.20215491	     -0.25642360	      0.92998951	     -0.57796935	     58.84202832	     -8.49308610	      4.11123539	     70.02341612	      1.22213916	     23.95483762	    -15.82011631	     -7.49998217	     58.87792083	    -10.22275610	     -0.92360983	     67.56730829	      1.17927200	     23.58797161	    -14.24665004	     -7.49998217	    -17.77816063	      3.09159876	      3.58612234	    118.03905102	    -18.60533325	     35.66397525	     99.29839611	     83.87262076	    114.30918671	    -16.91296062	     25.98863757	     99.24635320	     92.61772419
      2.09000000	    -17.06921343	      0.52568575	      2.05308533	     -0.24922201	      0.94718179	     -0.57734410	     55.69514009	     -8.52459764	      3.74410127	     66.72654870	      1.16459797	     22.89409225	    -15.35584277	     -7.49998703	     55.77555879	    -10.07502347	     -1.17770691	     64.39807208	      1.12395839	     22.15042501	    -14.91501357	     -7.49998703	    -16.91918629	      3.22537241	      3.30936533	    119.93269360	    -19.13322208	     36.59636385	     97.79319426	     82.32222718	    116.66587096	    -17.80243235	     27.10462762	     97.06158593	     89.80312502
      2.10000000	    -16.48194673	      0.42229176	      1.95570856	     -0.24315703	      0.96460316	     -0.57617657	     52.65873653	     -8.56161294	      3.26406644	     63.31475443	      1.10505093	     21.71141637	    -14.79326161	     -7.49998863	     52.79217585	     -9.96328759	     -1.39717102	     61.07423526	      1.06594649	     20.49377036	    -15.54296739	     -7.49998863	    -15.89520776	      3.45881421	      3.06157423	    121.81718157	    -19.94286307	     37.82489265	     96.30982525	     82.33963322	    118.88304730	    -18.87226263	     28.39010036	     94.91930143	     89.47879699
